<?xml version="1.0"?>
<svg xmlns="http://www.w3.org/2000/svg" xmlns:xlink="http://www.w3.org/1999/xlink" version="1.1" id="Capa_1" x="0px" y="0px" viewBox="0 0 512 512" style="enable-background:new 0 0 512 512;" xml:space="preserve" width="512px" height="512px"><g><g>
	<g>
		<path d="M276.42,419.381c-1.86-1.86-4.441-2.93-7.07-2.93c-2.63,0-5.21,1.07-7.07,2.93c-1.859,1.87-2.93,4.44-2.93,7.07    s1.07,5.21,2.93,7.07c1.86,1.87,4.44,2.94,7.07,2.94s5.21-1.07,7.07-2.94c1.859-1.86,2.93-4.43,2.93-7.07    C279.35,423.821,278.28,421.241,276.42,419.381z" data-original="#000000" class="active-path" data-old_color="#fffffa" fill="#fffffa"/>
	</g>
</g><g>
	<g>
		<path d="M417.706,248.568l-23.303-105.285C406.581,141.631,416,131.172,416,118.548v-18.063c0-13.768-11.201-24.969-24.969-24.969    H332c-10.607,0-19.685,6.652-23.296,16h-36.577c-14.337,0-26,11.664-26,26s11.663,26,26,26H332h4.473v25c0,5.523,4.478,10,10,10    c5.522,0,10-4.477,10-10v-25h17.499l25.102,113.417l-47.505,84.613c-5.189,9.213-14.982,14.937-25.556,14.937H207.414    c-4.962-41.634-40.465-74.029-83.414-74.029c-19.004,0-36.934,6.19-51.851,17.901c-0.016,0.013-0.032,0.025-0.048,0.038    c-17.769,13.969-28.938,34.022-31.541,56.09H20.022c1.306-71.888,60.191-129.967,132.386-129.967H203.5h3.842    c5.602,0,10.158,4.557,10.158,10.158v89.809c0,5.523,4.478,10,10,10h69.212c21.705,0,41.708-11.802,52.204-30.8    c4.855-8.789,7.427-18.74,7.438-28.776l0.048-34.226c0.008-5.523-4.463-10.006-9.986-10.014c-0.005,0-0.009,0-0.014,0    c-5.517,0-9.992,4.468-10,9.986l-0.048,34.229c-0.007,6.673-1.717,13.288-4.943,19.129c-6.977,12.627-20.272,20.472-34.698,20.472    H237.5v-79.809c0-8.313-3.381-15.852-8.84-21.312c5.49-6.041,8.84-14.059,8.84-22.846c0-18.748-15.252-34-34-34h-75.333    c-18.748,0-34,15.252-34,34c0,8.56,3.187,16.385,8.427,22.369C42.944,235.574,0,292.324,0,358.926v7.559c0,5.523,4.478,10,10,10    h56.201c-0.131,0.646-0.201,1.315-0.201,2c0,14.513,5.371,27.788,14.213,37.971H40.089c-5.522,0-10,4.477-10,10s4.478,10,10,10    H227.5c5.522,0,10-4.477,10-10s-4.478-10-10-10h-59.713C176.629,406.272,182,392.998,182,378.483c0-0.685-0.07-1.354-0.201-2    h144.213c15.745,0,30.46-7.545,39.684-20.029h12.662c-2.847,6.929-4.358,14.396-4.358,22.029c0,14.513,5.371,27.788,14.213,37.971    h-69.439c-5.522,0-10,4.477-10,10s4.478,10,10,10h112.072c0.385,0.008,0.767,0.029,1.154,0.029c31.981,0,58-26.019,58-58    c0-7.633-1.511-15.1-4.358-22.029H502c5.522,0,10-4.477,10-10C512,293.668,470.027,250.501,417.706,248.568z M272.127,123.517    c-3.309,0-6-2.692-6-6c0-3.309,2.691-6,6-6h34.904v7.031c0,1.701,0.172,3.362,0.498,4.969H272.127z M382,123.518c0,0-50,0-50,0    c-2.74,0-4.969-2.229-4.969-4.969v-18.063c0-2.74,2.229-4.969,4.969-4.969h59.031c2.74,0,4.969,2.229,4.969,4.969v18.063    c0,2.74-2.229,4.969-4.969,4.969H382z M128.167,178.517H203.5c7.72,0,14,6.28,14,14c0,7.72-6.28,14-14,14h-51.092h-24.241    c-7.72,0-14-6.28-14-14C114.167,184.798,120.447,178.517,128.167,178.517z M162,378.483c0,20.566-16.426,37.357-36.846,37.971    h-2.309C102.426,415.84,86,399.05,86,378.483c0-0.685-0.07-1.354-0.201-2H162.2C162.07,377.131,162,377.798,162,378.483z     M60.743,356.483c2.478-15.886,10.827-30.241,23.745-40.387c0.018-0.013,0.034-0.027,0.052-0.041    c11.353-8.898,24.995-13.601,39.46-13.601c31.905,0,58.436,23.455,63.249,54.029H60.743z M432.386,416.473    c-0.129-0.005-0.256-0.019-0.386-0.019h-1.154C410.426,415.84,394,399.05,394,378.483c0-7.944,2.476-15.624,7.041-22.029h61.918    c4.565,6.405,7.041,14.085,7.041,22.029C470,399.308,453.161,416.264,432.386,416.473z M467.743,336.454h-71.486h-18.893    l38.133-67.92c38.942,0.717,71.003,30.111,75.864,67.92H467.743z" data-original="#000000" class="active-path" data-old_color="#fffffa" fill="#fffffa"/>
	</g>
</g><g>
	<g>
		<path d="M346.473,193.668h-0.037c-5.522,0-9.981,4.477-9.981,10c0,5.523,4.495,10,10.018,10c5.522,0,10-4.477,10-10    C356.473,198.146,351.995,193.668,346.473,193.668z" data-original="#000000" class="active-path" data-old_color="#fffffa" fill="#fffffa"/>
	</g>
</g></g> </svg>
